<mxfile host="app.diagrams.net" modified="2021-08-07T00:18:13.564Z" agent="5.0 (Windows NT 10.0; Win64; x64) AppleWebKit/537.36 (KHTML, like Gecko) Chrome/92.0.4515.131 Safari/537.36" etag="Qrp3IkseD_s4aJ7wCt2-" version="14.9.4" type="github">
  <diagram id="Z_L-AWP88pnk8-IzUKq-" name="Page-1">
    <mxGraphModel dx="2031" dy="1089" grid="1" gridSize="10" guides="1" tooltips="1" connect="1" arrows="1" fold="1" page="1" pageScale="1" pageWidth="850" pageHeight="1100" math="0" shadow="0">
      <root>
        <mxCell id="0" />
        <mxCell id="1" parent="0" />
        <mxCell id="mR3gihREqQYf-GJDufRb-217" value="" style="shape=ext;double=1;whiteSpace=wrap;html=1;aspect=fixed;fillColor=#dae8fc;strokeColor=#6c8ebf;" vertex="1" parent="1">
          <mxGeometry x="780" y="110" width="220" height="220" as="geometry" />
        </mxCell>
        <mxCell id="mR3gihREqQYf-GJDufRb-218" value="" style="shape=ext;double=1;whiteSpace=wrap;html=1;aspect=fixed;fillColor=#fff2cc;strokeColor=#d6b656;" vertex="1" parent="1">
          <mxGeometry x="1110" y="160" width="220" height="220" as="geometry" />
        </mxCell>
        <mxCell id="mR3gihREqQYf-GJDufRb-219" value="" style="shape=ext;double=1;rounded=0;whiteSpace=wrap;html=1;fillColor=#f8cecc;strokeColor=#b85450;" vertex="1" parent="1">
          <mxGeometry x="790" y="475" width="340" height="170" as="geometry" />
        </mxCell>
        <mxCell id="mR3gihREqQYf-GJDufRb-220" value="" style="shape=singleArrow;direction=south;whiteSpace=wrap;html=1;fillColor=#a20025;strokeColor=#6F0000;fontColor=#ffffff;" vertex="1" parent="1">
          <mxGeometry x="1190" y="220" width="60" height="100" as="geometry" />
        </mxCell>
        <mxCell id="mR3gihREqQYf-GJDufRb-221" value="" style="shape=singleArrow;direction=north;whiteSpace=wrap;html=1;fillColor=#a20025;strokeColor=#6F0000;fontColor=#ffffff;" vertex="1" parent="1">
          <mxGeometry x="860" y="170" width="60" height="100" as="geometry" />
        </mxCell>
        <mxCell id="mR3gihREqQYf-GJDufRb-222" value="" style="shape=singleArrow;direction=north;whiteSpace=wrap;html=1;rotation=90;fillColor=#a20025;strokeColor=#6F0000;fontColor=#ffffff;" vertex="1" parent="1">
          <mxGeometry x="930" y="500" width="60" height="100" as="geometry" />
        </mxCell>
        <mxCell id="mR3gihREqQYf-GJDufRb-223" value="Eye Paintings" style="text;strokeColor=none;fillColor=none;html=1;fontSize=24;fontStyle=1;verticalAlign=middle;align=center;" vertex="1" parent="1">
          <mxGeometry x="800" y="60" width="180" height="40" as="geometry" />
        </mxCell>
        <mxCell id="mR3gihREqQYf-GJDufRb-225" value="Sun / Moon Paintings" style="text;strokeColor=none;fillColor=none;html=1;fontSize=24;fontStyle=1;verticalAlign=middle;align=center;" vertex="1" parent="1">
          <mxGeometry x="1130" y="110" width="180" height="40" as="geometry" />
        </mxCell>
        <mxCell id="mR3gihREqQYf-GJDufRb-226" value="Forest Fire / Tsunami" style="text;strokeColor=none;fillColor=none;html=1;fontSize=24;fontStyle=1;verticalAlign=middle;align=center;" vertex="1" parent="1">
          <mxGeometry x="870" y="415" width="180" height="40" as="geometry" />
        </mxCell>
        <mxCell id="mR3gihREqQYf-GJDufRb-228" value="&lt;h1 style=&quot;font-size: 31px&quot;&gt;&lt;font style=&quot;font-size: 31px&quot;&gt;Painting Puzzle&lt;/font&gt;&lt;/h1&gt;&lt;p style=&quot;font-size: 31px&quot;&gt;&lt;font style=&quot;font-size: 31px&quot;&gt;&lt;b&gt;&lt;i&gt;Once in a blue moon, it points, but not from your perspective.&lt;/i&gt;&amp;nbsp;&lt;/b&gt;&lt;/font&gt;&lt;/p&gt;&lt;p style=&quot;font-size: 31px&quot;&gt;&lt;font style=&quot;font-size: 31px&quot;&gt;&lt;b&gt;Neither one can put out the other&amp;nbsp;&lt;/b&gt;&lt;/font&gt;&lt;/p&gt;" style="text;html=1;strokeColor=none;fillColor=none;spacing=5;spacingTop=-20;whiteSpace=wrap;overflow=hidden;rounded=0;" vertex="1" parent="1">
          <mxGeometry x="50" y="690" width="860" height="410" as="geometry" />
        </mxCell>
        <mxCell id="mR3gihREqQYf-GJDufRb-230" value="" style="shape=ext;double=1;rounded=0;whiteSpace=wrap;html=1;fillColor=#f8cecc;strokeColor=#b85450;rotation=0;" vertex="1" parent="1">
          <mxGeometry x="310" y="280" width="340" height="170" as="geometry" />
        </mxCell>
        <mxCell id="mR3gihREqQYf-GJDufRb-231" value="" style="shape=ext;double=1;whiteSpace=wrap;html=1;aspect=fixed;fillColor=#dae8fc;strokeColor=#6c8ebf;" vertex="1" parent="1">
          <mxGeometry x="50" y="405" width="220" height="220" as="geometry" />
        </mxCell>
        <mxCell id="mR3gihREqQYf-GJDufRb-232" value="" style="shape=ext;double=1;whiteSpace=wrap;html=1;aspect=fixed;fillColor=#fff2cc;strokeColor=#d6b656;" vertex="1" parent="1">
          <mxGeometry x="50" y="110" width="220" height="220" as="geometry" />
        </mxCell>
        <mxCell id="mR3gihREqQYf-GJDufRb-233" value="" style="shape=singleArrow;direction=south;whiteSpace=wrap;html=1;fillColor=#a20025;strokeColor=#6F0000;fontColor=#ffffff;rotation=-90;" vertex="1" parent="1">
          <mxGeometry x="130" y="170" width="60" height="100" as="geometry" />
        </mxCell>
        <mxCell id="mR3gihREqQYf-GJDufRb-234" value="Sun / Moon Paintings" style="text;strokeColor=none;fillColor=none;html=1;fontSize=24;fontStyle=1;verticalAlign=middle;align=center;" vertex="1" parent="1">
          <mxGeometry x="70" y="60" width="180" height="40" as="geometry" />
        </mxCell>
        <mxCell id="mR3gihREqQYf-GJDufRb-235" value="" style="shape=singleArrow;direction=north;whiteSpace=wrap;html=1;fillColor=#a20025;strokeColor=#6F0000;fontColor=#ffffff;rotation=-90;" vertex="1" parent="1">
          <mxGeometry x="130" y="465" width="60" height="100" as="geometry" />
        </mxCell>
        <mxCell id="mR3gihREqQYf-GJDufRb-240" value="Eye Paintings" style="text;strokeColor=none;fillColor=none;html=1;fontSize=24;fontStyle=1;verticalAlign=middle;align=center;" vertex="1" parent="1">
          <mxGeometry x="70" y="350" width="180" height="40" as="geometry" />
        </mxCell>
        <mxCell id="mR3gihREqQYf-GJDufRb-241" value="" style="shape=singleArrow;direction=north;whiteSpace=wrap;html=1;rotation=-90;fillColor=#a20025;strokeColor=#6F0000;fontColor=#ffffff;" vertex="1" parent="1">
          <mxGeometry x="440" y="315" width="60" height="100" as="geometry" />
        </mxCell>
        <mxCell id="mR3gihREqQYf-GJDufRb-242" value="&lt;span style=&quot;font-size: 20px&quot;&gt;&lt;b&gt;STARTING POSITION&lt;/b&gt;&lt;/span&gt;" style="ellipse;whiteSpace=wrap;html=1;dashed=1;fillColor=#d5e8d4;" vertex="1" parent="1">
          <mxGeometry x="350" y="130" width="245" height="80" as="geometry" />
        </mxCell>
        <mxCell id="mR3gihREqQYf-GJDufRb-243" value="&lt;span style=&quot;font-size: 20px&quot;&gt;&lt;b&gt;SOLUTION&lt;/b&gt;&lt;/span&gt;" style="ellipse;whiteSpace=wrap;html=1;dashed=1;fillColor=#d5e8d4;" vertex="1" parent="1">
          <mxGeometry x="1110" y="395" width="245" height="80" as="geometry" />
        </mxCell>
        <mxCell id="mR3gihREqQYf-GJDufRb-244" value="Forest Fire / Tsunami" style="text;strokeColor=none;fillColor=none;html=1;fontSize=24;fontStyle=1;verticalAlign=middle;align=center;" vertex="1" parent="1">
          <mxGeometry x="382.5" y="230" width="180" height="40" as="geometry" />
        </mxCell>
      </root>
    </mxGraphModel>
  </diagram>
</mxfile>
